<?xml version="1.0" encoding="UTF-8" standalone="no"?>
<!-- Created with Inkscape (http://www.inkscape.org/) -->

<svg
   version="1.1"
   id="svg1"
   width="546"
   height="546"
   viewBox="0 0 546 546"
   xmlns="http://www.w3.org/2000/svg"
   xmlns:svg="http://www.w3.org/2000/svg">
  <defs
     id="defs1" />
  <g
     id="g1">
    <path
       style="fill:#acacac"
       d="m 263.9507,525.3596 c -9.13888,-2.39413 -15.04125,-5.58381 -24.36842,-13.16886 -19.12208,-15.5505 -27.33599,-20.34526 -43.82218,-25.58061 -19.83722,-6.29951 -23.15412,-6.72971 -51.5,-6.67948 -39.54532,0.0701 -55.450489,3.43959 -97.151124,20.58147 -21.033724,8.64634 -25.353496,9.44123 -32.233391,5.93137 -2.092664,-1.06759 -5.2247368,-3.55825 -6.9601618,-5.53479 l -3.15532,-3.59371 V 373.53687 249.75876 l 2.953248,-2.82939 c 2.191945,-2.10002 4.1897798,-2.93301 7.7499998,-3.23134 2.638214,-0.22108 5.471752,0.0513 6.296752,0.6052 1.298541,0.87189 1.585214,10.24567 2.134477,69.79425 0.348962,37.83291 0.686462,91.8128 0.75,119.95531 0.06354,28.14252 0.388668,51.88002 0.722512,52.75 0.93063,2.42519 3.977832,1.90779 10.730526,-1.82199 3.389367,-1.87208 11.357257,-5.44153 17.706424,-7.93212 56.199588,-22.04537 107.976348,-23.22731 156.059858,-3.56247 16.85385,6.89276 26.5472,12.67245 44.22892,26.37161 13.21336,10.23724 27.41576,9.73135 41.56926,-1.4807 12.92813,-10.24135 40.2204,-24.738 56.09802,-29.79722 11.74232,-3.74155 27.17076,-6.7683 42.33941,-8.30612 29.3337,-2.97391 66.53511,4.76321 104.28267,21.68863 8.18286,3.66907 16.22792,6.72753 17.87792,6.7966 l 3,0.12557 0.63807,-9.5 c 0.35094,-5.225 0.71373,-55.4 0.8062,-111.5 0.0925,-56.1 0.51783,-106.67619 0.94524,-112.39153 0.86792,-11.60575 1.77361,-13.10847 7.90041,-13.10847 4.35006,0 8.68439,4.40096 9.56149,9.70847 0.34462,2.08534 0.63153,58.98241 0.63758,126.43794 l 0.011,122.64641 -3.5135,3.08489 c -9.99464,8.77541 -14.50923,8.74249 -33.4865,-0.24416 -21.64652,-10.25068 -34.7358,-15.36816 -47.65053,-18.62981 -18.99103,-4.79625 -24.83178,-5.3 -54.64962,-4.71335 -30.48189,0.59972 -35.44269,1.3353 -52.68189,7.81163 -14.64816,5.50295 -23.34164,10.77685 -35.6426,21.62261 -11.98235,10.56485 -16.7489,13.32038 -27.07277,15.65074 -9.03752,2.03999 -12.01202,1.98359 -21.11199,-0.40035 z m 3.299,-39.28542 c -1.90921,-1.90921 -3.81039,-5.18955 -4.49164,-7.75 -3.23766,-12.16855 -14.98607,-26.66629 -30.6719,-37.84966 -17.18986,-12.25569 -44.10434,-23.60912 -69.32606,-29.24407 -9.45555,-2.11252 -12.8873,-2.34212 -34.5,-2.30814 -22.28491,0.035 -24.89247,0.23156 -36.488724,2.75 -18.451089,4.00716 -17.589259,4.23292 -18.353477,-4.80776 C 72.36424,394.39977 71.60818,248.65366 72.463501,222.88458 l 0.796602,-24 3.5,-1.68842 c 8.583358,-4.14065 38.561507,-5.31123 59.499997,-2.32334 14.36533,2.04991 39.23495,8.20547 49.92972,12.35826 10.62558,4.12593 14.24854,6.79229 16.85346,12.4035 1.21281,2.6125 2.51461,4.75 2.89287,4.75 0.95685,0 4.13217,-4.64666 6.83356,-10 6.44007,-12.76227 18.67064,-28 22.47422,-28 6.09746,0 -0.68805,19.73381 -12.37004,35.97488 -7.58772,10.54895 -9.60942,14.68133 -13.7807,28.16793 -4.20679,13.60138 -6.10637,16.35253 -10.66182,15.44144 -4.88367,-0.97673 -7.67274,-3.29166 -7.6594,-6.3573 0.0185,-4.24246 2.34148,-11.95192 6.33538,-21.02539 2.00901,-4.56414 3.65275,-8.46973 3.65275,-8.6791 0,-0.20936 -2.5875,-0.91182 -5.75,-1.56102 -3.1625,-0.64919 -12.65206,-3.37249 -21.08792,-6.05177 -23.19829,-7.36794 -33.00265,-9.00585 -57.70517,-9.64023 -18.950267,-0.48665 -21.212851,-0.37064 -22.749999,1.16651 -1.58303,1.58303 -1.706908,8.01573 -1.706908,88.63548 v 86.92857 h 26.276227 c 14.45193,0 30.08943,0.46669 34.75,1.03709 32.08325,3.9266 69.86389,19.65669 93.97377,39.12628 9.95037,8.03527 14.88231,11.28763 15.77033,10.3997 0.40132,-0.40128 0.72967,-34.84593 0.72967,-76.54367 v -75.81407 l -5.8187,-8.56619 c -3.20029,-4.7114 -11.07529,-14.05374 -17.5,-20.76075 -11.67895,-12.19211 -11.68127,-12.1955 -11.53487,-16.90869 0.38807,-12.49343 6.20014,-11.88715 22.4791,2.3449 4.72603,4.13179 11.39153,10.89585 14.81222,15.03125 l 6.21942,7.51891 10.17142,-10.56764 c 5.59427,-5.81221 13.77141,-13.38013 18.17141,-16.8176 29.22459,-22.83154 69.08609,-38.62497 112.5,-44.57334 10.66801,-1.46168 39.42146,-1.49891 47.87029,-0.062 11.68676,1.98762 10.78154,-0.79734 11.65347,35.85257 0.76359,32.09582 -0.20929,179.32018 -1.20207,181.90731 -0.73664,1.91966 -4.43025,1.75393 -15.96161,-0.71618 -12.34034,-2.64341 -38.39577,-3.61475 -53.3333,-1.98825 -21.98847,2.39425 -44.63234,8.23968 -60.99365,15.74527 -10.86504,4.98423 -26.16863,15.63351 -36.24862,25.22425 -6.86383,6.53069 -9.47608,9.82577 -11.89159,15 -1.70253,3.64696 -4.02332,8.61205 -5.15733,11.03352 -1.134,2.42147 -3.93628,6.35897 -6.22729,8.75 -5.37306,5.60763 -9.16734,5.88828 -14.0187,1.03692 z m 29.21826,-52.34265 c 21.83995,-19.53478 43.61366,-30.9639 74.10903,-38.90015 15.38083,-4.00278 20.4064,-4.52686 51.46231,-5.36662 16.37856,-0.44288 30.10356,-1.12962 30.5,-1.52608 0.99874,-0.9988 0.91191,-164.93517 -0.0905,-170.8041 l -0.81125,-4.75 h -9.29351 c -14.67325,0 -34.01467,1.85738 -47.36492,4.54852 -24.94508,5.02842 -55.138,17.07925 -70.90624,28.30064 -17.96935,12.78781 -26.68533,21.64563 -35.92806,36.51277 l -5.50937,8.86193 0.31233,75.13807 c 0.27551,66.28143 0.61621,77.63807 2.3292,77.63807 0.21936,0 5.25531,-4.34387 11.19098,-9.65305 z m 14.9085,-59.34983 c -1.989,-2.20159 -3.61636,-4.47393 -3.61636,-5.04966 0,-7.13444 25.85594,-28.32604 48.33561,-39.61601 17.39738,-8.73749 42.48826,-15.25154 59.7802,-15.52003 11.65386,-0.18094 16.04018,2.44663 14.47755,8.67263 -0.92622,3.69037 -4.65149,5.09229 -21.14283,7.95666 -34.39249,5.97361 -57.29515,16.7673 -82.75156,38.99959 -5.39056,4.70783 -10.1757,8.5597 -10.63364,8.5597 -0.45793,0 -2.45997,-1.8013 -4.44897,-4.00288 z m -0.69328,-50.9202 c -3.70957,-3.70957 -3.69621,-6.70956 0.0529,-11.88509 5.37248,-7.4165 24.65046,-22.02514 37.524,-28.43528 19.20982,-9.56516 58.86068,-20.75655 73.54005,-20.75655 6.94528,0 10.87253,5.55784 7.87929,11.15076 -1.39866,2.61341 -8.44515,5.79668 -12.91932,5.83634 -9.71044,0.0861 -45.65783,10.79399 -59.3014,17.66457 -9.46315,4.76542 -20.32422,12.08896 -30.1986,20.36271 -7.41727,6.21494 -11.42922,8.98562 -13.01118,8.98562 -0.35347,0 -1.95805,-1.31538 -3.56574,-2.92308 z m -4.25641,147.25641 c -4.35696,-4.35696 15.48737,-21.52827 35.64011,-30.83941 15.63953,-7.2259 45.7549,-13.49076 68.19322,-14.18613 13.85637,-0.42942 16.58973,-0.19172 35.85105,3.11758 11.46808,1.97035 25.15913,4.70214 30.42454,6.07066 5.26542,1.36853 9.83245,2.22946 10.14895,1.91318 0.3165,-0.31627 0.68897,-47.90023 0.82771,-105.74212 0.13874,-57.8419 0.46802,-106.1127 0.73174,-107.26844 0.26372,-1.15574 2.25715,-3.33326 4.42984,-4.83894 4.36942,-3.028 6.91831,-2.8564 10.83617,0.72954 l 2.25,2.05938 -0.002,92.57568 c -0.001,50.91663 -0.2992,105.76861 -0.66263,121.89328 l -0.66078,29.31759 -2.49133,-0.62528 c -1.37024,-0.34391 -7.25956,-2.79837 -13.08738,-5.45435 -29.05882,-13.24334 -57.46082,-18.49286 -87.72381,-16.21392 -27.86253,2.09817 -40.37771,5.34387 -64.54175,16.73831 -14.09351,6.6458 -25.87719,11.42006 -28.18648,11.42006 -0.72078,0 -1.61051,-0.3 -1.97717,-0.66667 z m -84.16667,-6.03302 c -35.55223,-18.16505 -55.47733,-22.95578 -91.5,-21.99998 -28.72786,0.76224 -35.489252,2.26806 -79.78962,17.76977 -6.377402,2.2316 -9.612731,2.92755 -10.320298,2.21998 -0.689357,-0.68936 -1.225888,-40.50984 -1.620158,-120.24541 l -0.589483,-119.21473 2.909781,-2.37901 c 3.61363,-2.95446 7.658235,-3.07853 12.041747,-0.36937 l 3.368034,2.08156 0.08202,32.66844 c 0.171415,68.271 1.505821,181.08962 2.149521,181.73332 0.369341,0.36934 7.780837,-1.16013 16.469992,-3.39881 25.776884,-6.6412 32.329964,-7.54814 54.798464,-7.58405 22.5419,-0.036 33.27315,1.49905 55.37001,7.92054 34.38838,9.99347 51.12999,20.78738 51.12999,32.96532 0,3.82306 -3.92307,3.23661 -14.5,-2.16757 z m 6.45362,-87.99387 c -1.34949,-0.91691 -5.37862,-4.2102 -8.95362,-7.31841 -27.04099,-23.51029 -49.6291,-33.94018 -84.14994,-38.85561 -16.16007,-2.30104 -20.85006,-4.11676 -20.85006,-8.07205 0,-1.62098 1.0371,-3.68689 2.57832,-5.13606 2.2968,-2.15961 3.63434,-2.46013 12.25,-2.75236 22.76834,-0.77227 55.72634,10.24015 80.77467,26.98962 12.36333,8.26719 26.94417,21.91107 27.97304,26.17548 0.73453,3.04448 -1.32234,6.7546 -5.15583,9.29994 -1.71372,1.13787 -2.3777,1.08873 -4.46658,-0.33055 z m -4.42812,-54.44076 c -8.21561,-7.05002 -26.01971,-19.07667 -36.56158,-24.69729 -15.27882,-8.14622 -41.0494,-16.08834 -58.38412,-17.99314 -7.50712,-0.82491 -9.16025,-1.35717 -11.66334,-3.75528 -4.68769,-4.4911 -3.51675,-9.40669 2.73201,-11.46897 4.69622,-1.54989 14.27444,-0.68503 29.35153,2.65029 33.43576,7.39657 60.65598,20.78645 80.56209,39.62924 11.91258,11.27625 13.05688,14.02884 8.11458,19.51947 -3.25383,3.61484 -6.42725,2.74377 -14.15117,-3.88432 z m 34.4745,-142.75635 c -1.52753,-0.42241 -2.62346,-1.5442 -2.8174,-2.8839 -0.40705,-2.81187 5.05809,-13.08123 9.87197,-18.55009 2.05076,-2.32978 4.75802,-6.47233 6.01613,-9.20566 1.67716,-3.64374 6.44189,-9.05414 17.85839,-20.27837 29.48213,-28.98564 36.15337,-34.60588 68.76298,-57.929893 9.41101,-6.731221 18.28025,-13.628247 19.70943,-15.326726 4.75754,-5.654017 2.58118,-13.87403 -3.29526,-12.446006 -3.69101,0.896949 -14.40838,7.381253 -24.22359,14.65595 -13.51172,10.014422 -39.76738,30.791372 -47.88265,37.891085 -7.71156,6.74652 -11.94493,9.96428 -13.10928,9.96428 -0.70664,0 -1.94199,-6.29538 -4.41518,-22.5 -0.83943,-5.5 -2.43149,-13.32826 -3.53792,-17.396132 l -2.01168,-7.396133 2.15842,-2.297527 c 1.18712,-1.26364 3.72528,-3.041056 5.64034,-3.949813 1.91507,-0.908757 5.12861,-3.139959 7.14122,-4.958225 4.55209,-4.112541 17.21406,-12.011692 27.7274,-17.297694 20.3257,-10.219565 48.37278,-14.738007 66.24719,-10.67256 14.49013,3.295709 16.66834,6.575918 16.57999,24.968084 -0.0945,19.677111 -5.22696,37.487608 -16.65871,57.80872 -5.69298,10.11985 -18.46749,27.67131 -21.87947,30.06115 -4.05928,2.84324 -8.01153,2.79201 -24.88232,-0.32253 -24.46078,-4.51572 -28.90595,-4.11794 -32.87374,2.9418 -4.21482,7.49926 -2.61039,9.34029 10.87374,12.47727 14.61707,3.40054 19.63015,7.48055 16.53809,13.45993 -3.58718,6.93684 -22.78375,15.55027 -41.15742,18.46717 -10.10706,1.60454 -31.63499,2.02812 -36.38067,0.71582 z m -21.71427,-17.79289 c -1.45691,-5.22227 -0.50425,-29.32391 1.64659,-41.65785 3.73527,-21.41975 5.86822,-26.35088 13.61855,-31.484487 6.53483,-4.328494 8.69937,-4.138151 12.2348,1.075897 4.15254,6.12417 13.21433,23.23922 13.21433,24.95799 0,2.09357 -5.56256,9.75701 -22.35758,30.80162 -8.11612,10.16971 -15.38982,18.63279 -16.16377,18.80683 -0.83099,0.18687 -1.72892,-0.83679 -2.19292,-2.5 z m -78.95953,-7.7985 c -18.37504,-3.33382 -28.26353,-12.28992 -34.24713,-31.01794 -3.07122,-9.61256 -6.74173,-32.330763 -5.67339,-35.114798 1.48866,-3.879397 27.39958,1.195752 39.77177,7.790068 11.86236,6.32257 18.87616,14.56847 21.26534,25.00095 2.42889,10.60592 4.03793,31.53962 2.56103,33.31917 -1.57118,1.89317 -13.30576,1.90434 -23.67762,0.0226 z m 18.32363,-8.98808 c -0.94534,-2.46353 -24.30897,-31.06526 -27.72171,-33.93689 -4.58953,-3.86183 -10.36614,-6.59297 -13.94475,-6.59297 h -3.0963 l 3.03674,3.75 c 1.6702,2.0625 5.6607,7.35 8.86778,11.75 6.2541,8.58042 11.93151,13.80092 23.44769,21.56062 7.42375,5.0022 10.42311,6.10792 9.41055,3.46924 z"
       id="path3-3" />
  </g>
</svg>
